<?xml version="1.0" encoding="UTF-8" standalone="no"?>
<!DOCTYPE svg PUBLIC "-//W3C//DTD SVG 1.1//EN"
 "http://www.w3.org/Graphics/SVG/1.1/DTD/svg11.dtd">
<!-- Generated by graphviz version 2.43.20190912.0211 (20190912.0211)
 -->
<!-- Title: top Pages: 1 -->
<svg width="291pt" height="70pt"
 viewBox="0.00 0.00 291.28 70.00" xmlns="http://www.w3.org/2000/svg" xmlns:xlink="http://www.w3.org/1999/xlink">
<g id="graph0" class="graph" transform="scale(1 1) rotate(0) translate(4 66)">
<title>top</title>
<polygon fill="white" stroke="transparent" points="-4,4 -4,-66 287.28,-66 287.28,4 -4,4"/>
<text text-anchor="middle" x="141.64" y="-7.8" font-family="Times,serif" font-size="14.00">top</text>
<!-- n1 -->
<g id="node1" class="node">
<title>n1</title>
<polygon fill="none" stroke="black" points="283.42,-35.04 283.42,-49.96 266.85,-60.5 243.43,-60.5 226.86,-49.96 226.86,-35.04 243.43,-24.5 266.85,-24.5 283.42,-35.04"/>
<text text-anchor="middle" x="255.14" y="-38.8" font-family="Times,serif" font-size="14.00">out</text>
</g>
<!-- n2 -->
<g id="node2" class="node">
<title>n2</title>
<polygon fill="none" stroke="black" points="54,-35.04 54,-49.96 38.18,-60.5 15.82,-60.5 0,-49.96 0,-35.04 15.82,-24.5 38.18,-24.5 54,-35.04"/>
<text text-anchor="middle" x="27" y="-38.8" font-family="Times,serif" font-size="14.00">in</text>
</g>
<!-- c5 -->
<g id="node3" class="node">
<title>c5</title>
<polygon fill="none" stroke="black" points="90,-23.5 90,-61.5 191,-61.5 191,-23.5 90,-23.5"/>
<text text-anchor="middle" x="103" y="-38.8" font-family="Times,serif" font-size="14.00">A</text>
<polyline fill="none" stroke="black" points="116,-23.5 116,-61.5 "/>
<text text-anchor="middle" x="140.5" y="-46.3" font-family="Times,serif" font-size="14.00">$1</text>
<text text-anchor="middle" x="140.5" y="-31.3" font-family="Times,serif" font-size="14.00">$not</text>
<polyline fill="none" stroke="black" points="165,-23.5 165,-61.5 "/>
<text text-anchor="middle" x="178" y="-38.8" font-family="Times,serif" font-size="14.00">Y</text>
</g>
<!-- n2&#45;&gt;c5 -->
<g id="edge2" class="edge">
<title>n2:e&#45;&gt;c5:w</title>
<path fill="none" stroke="black" d="M54,-42.5C66,-42.5 71.25,-42.5 79.88,-42.5"/>
<polygon fill="black" stroke="black" points="80,-46 90,-42.5 80,-39 80,-46"/>
</g>
<!-- c5&#45;&gt;n1 -->
<g id="edge1" class="edge">
<title>c5:e&#45;&gt;n1:w</title>
<path fill="none" stroke="black" d="M191,-42.5C203,-42.5 208.25,-42.5 216.88,-42.5"/>
<polygon fill="black" stroke="black" points="217,-46 227,-42.5 217,-39 217,-46"/>
</g>
</g>
</svg>
